# xmcd CD database file
# Copyright (C) 1995 Ti Kan
#
# Track frame offsets:
#	150
#	10557
#	23480
#	37901
#	48844
#	58856
#	71974
#	81643
#	96942
#	106602
#	116835
#	127936
#	139821
#	150804
#	161657
#
# Disc length: 2320 seconds
#
# Revision: 1
# Processed by: cddbd v1.4b42PL0 Copyright (c) Steve Scherf et al.
# Submitted via: NotifyCDPlayer(CDDB) 1.60beta5_freedb
#
DISCID=b7090e0f
DTITLE=Charley Pride - Tribute to Jim Reeves
DYEAR=1900
DGENRE=
TTITLE0=Is It Really Over
TTITLE1=I Love You Because
TTITLE2=Guilty
TTITLE3=He'll Have to Go
TTITLE4=Blue Boy
TTITLE5=Four Walls
TTITLE6=There's a Heartache
TTITLE7=Blue Side of Lonesome
TTITLE8=I'm Gonna Change Everything
TTITLE9=I Won't Come In
TTITLE10=I Guess I'm Crazy
TTITLE11=Missing You
TTITLE12=Welcome to My World
TTITLE13=Am I Losing You
TTITLE14=Adios Amigo
EXTD=Date: May 15, 2001 \nLabel: MUSIC CITY RECORDS -- MADACY - 
EXTT0=
EXTT1=
EXTT2=
EXTT3=
EXTT4=
EXTT5=
EXTT6=
EXTT7=
EXTT8=
EXTT9=
EXTT10=
EXTT11=
EXTT12=
EXTT13=
EXTT14=
PLAYORDER=
